                <svg class="w-8 h-auto md:w-10 md:h-[50px]" viewBox="0 0 200 320" xmlns="http://www.w3.org/2000/svg">
                    <path fill="#EC4899" fill-rule="evenodd" d="
                        M 100,20 
                        C 160,20 180,50 180,95      
                        C 180,140 140,170 100,185  
                        
                        L 108,185                 
                        L 108,215                 
                        L 126,215                 
                        L 126,285                 
                        A 6,6 0 0,1 114,285       
                        L 114,250                 
                        A 4,4 0 0,0 106,250       
                        L 106,285                 
                        A 6,6 0 0,1 94,285        
                        L 94,250                  
                        A 4,4 0 0,0 86,250        
                        L 86,285                  
                        A 6,6 0 0,1 74,285        
                        L 74,215                  
                        L 92,215                  
                        L 92,185                  
                        
                        C 60,170 20,140 20,95 
                        C 20,50 40,20 100,20 
                        Z 
                        
                        M 100,70 
                        A 25,25 0 1,0 100,120 
                        A 25,25 0 1,0 100,70 
                        Z" 
                    />
                </svg>